<svg width="214" height="24" viewBox="0 0 214 24" fill="none" xmlns="http://www.w3.org/2000/svg">
<path d="M5.13077 18.3068C3.89782 18.3068 2.88645 18.017 2.09668 17.4375C1.31259 16.858 0.767134 16.0597 0.460316 15.0426C0.153498 14.0256 0.108043 12.8636 0.323952 11.5568C0.539862 10.2273 0.977362 9.05397 1.63645 8.03693C2.29554 7.0142 3.11657 6.21591 4.09952 5.64204C5.08248 5.0625 6.16486 4.77272 7.34668 4.77272C8.26713 4.77272 9.06827 4.94318 9.75009 5.28409C10.4319 5.625 10.9575 6.10227 11.3268 6.71591C11.6961 7.32954 11.8694 8.04545 11.8467 8.86363H9.83532C9.7785 8.26704 9.52282 7.73863 9.06827 7.27841C8.61941 6.8125 7.95463 6.57954 7.07395 6.57954C6.28986 6.57954 5.56827 6.78409 4.90918 7.19318C4.25009 7.59659 3.69611 8.16761 3.24725 8.90625C2.79838 9.6392 2.49441 10.5 2.33532 11.4886C2.16486 12.5 2.17907 13.3807 2.37793 14.1307C2.57679 14.8807 2.93759 15.4631 3.46032 15.8778C3.98304 16.2926 4.64213 16.5 5.43759 16.5C5.96032 16.5 6.44895 16.4091 6.9035 16.2273C7.35804 16.0455 7.76145 15.7841 8.11373 15.4432C8.466 15.1023 8.74441 14.6932 8.94895 14.2159H10.9603C10.7103 14.9886 10.3097 15.6847 9.75861 16.304C9.20748 16.9176 8.53986 17.4062 7.75577 17.7699C6.97168 18.1278 6.09668 18.3068 5.13077 18.3068ZM22.6563 18.3068C21.4518 18.3068 20.4433 18.0199 19.6308 17.446C18.8183 16.8722 18.2444 16.0682 17.9092 15.0341C17.5796 14 17.5257 12.7955 17.7472 11.4205C17.9632 10.0795 18.3921 8.91193 19.0342 7.91761C19.6819 6.91761 20.4859 6.14488 21.4461 5.59943C22.412 5.04829 23.4745 4.77272 24.6336 4.77272C25.8382 4.77272 26.8438 5.0625 27.6507 5.64204C28.4632 6.21591 29.037 7.02272 29.3722 8.0625C29.7075 9.09659 29.7643 10.3068 29.5427 11.6932C29.3268 13.0227 28.8921 14.1847 28.2387 15.179C27.591 16.1676 26.787 16.9375 25.8268 17.4886C24.8722 18.0341 23.8154 18.3068 22.6563 18.3068ZM22.6904 16.5C23.6109 16.5 24.4092 16.2642 25.0853 15.7926C25.7671 15.321 26.3183 14.6989 26.7387 13.9261C27.1649 13.1534 27.4518 12.3182 27.5995 11.4205C27.7359 10.5682 27.7302 9.77556 27.5825 9.04261C27.4347 8.30397 27.1194 7.71022 26.6365 7.26136C26.1535 6.80681 25.4745 6.57954 24.5995 6.57954C23.6791 6.57954 22.8751 6.81818 22.1876 7.29545C21.5058 7.77272 20.9546 8.40056 20.5342 9.17897C20.1137 9.95738 19.8325 10.7955 19.6904 11.6932C19.5541 12.5455 19.5569 13.3381 19.699 14.071C19.8467 14.7983 20.162 15.3864 20.645 15.8352C21.1336 16.2784 21.8154 16.5 22.6904 16.5ZM35.5732 18.0341L37.7551 4.94318H39.6982L39.3573 6.98863H39.5278C39.9198 6.28977 40.4511 5.74716 41.1215 5.36079C41.7977 4.96875 42.5619 4.77272 43.4142 4.77272C44.2664 4.77272 44.9511 4.96875 45.4681 5.36079C45.9852 5.74716 46.346 6.28977 46.5505 6.98863H46.6869C47.1301 6.30681 47.721 5.76704 48.4596 5.36932C49.2039 4.97159 50.0448 4.77272 50.9823 4.77272C52.1414 4.77272 53.0335 5.1392 53.6585 5.87216C54.2892 6.60511 54.4767 7.73863 54.221 9.27272L52.7551 18.0341H50.7437L52.2096 9.27272C52.363 8.30113 52.2096 7.61079 51.7494 7.2017C51.2948 6.78693 50.7096 6.57954 49.9937 6.57954C49.0732 6.57954 48.3147 6.85511 47.7181 7.40625C47.1215 7.95738 46.7551 8.65909 46.6187 9.51136L45.1869 18.0341H43.1414L44.6414 9.06818C44.7607 8.31818 44.6187 7.71591 44.2153 7.26136C43.8119 6.80681 43.2267 6.57954 42.4596 6.57954C41.9369 6.57954 41.4255 6.72159 40.9255 7.00568C40.4255 7.28409 39.9965 7.67045 39.6386 8.16477C39.2806 8.65341 39.0505 9.21591 38.9482 9.85227L37.5846 18.0341H35.5732ZM60.4326 18.0341L62.6144 4.94318H64.6258L62.444 18.0341H60.4326ZM64.2338 2.72727C63.8417 2.72727 63.5036 2.59375 63.2195 2.3267C62.9411 2.05966 62.8019 1.73863 62.8019 1.36363C62.8019 0.988633 62.9411 0.66761 63.2195 0.400565C63.5036 0.133519 63.8417 -3.8147e-06 64.2338 -3.8147e-06C64.6258 -3.8147e-06 64.961 0.133519 65.2394 0.400565C65.5235 0.66761 65.6656 0.988633 65.6656 1.36363C65.6656 1.73863 65.5235 2.05966 65.2394 2.3267C64.961 2.59375 64.6258 2.72727 64.2338 2.72727ZM73.4347 10.1591L72.1393 18.0341H70.1279L72.3097 4.94318H74.2529L73.912 6.98863H74.0825C74.4916 6.32386 75.0455 5.78977 75.7444 5.38636C76.4433 4.97727 77.287 4.77272 78.2757 4.77272C79.1507 4.77272 79.8893 4.95454 80.4916 5.31818C81.0995 5.67613 81.5285 6.22159 81.7785 6.95454C82.0342 7.68182 82.0711 8.60227 81.8893 9.71591L80.4916 18.0341H78.4802L79.8438 9.85227C80.0143 8.82954 79.8808 8.02841 79.4433 7.44886C79.0115 6.86931 78.3268 6.57954 77.3893 6.57954C76.7416 6.57954 76.1421 6.71875 75.591 6.99716C75.0455 7.27557 74.5825 7.68182 74.2018 8.21591C73.8268 8.75 73.5711 9.39772 73.4347 10.1591ZM92.6329 23.2159C91.6556 23.2159 90.8374 23.0909 90.1784 22.8409C89.5193 22.5966 88.9909 22.2727 88.5931 21.8693C88.1954 21.4716 87.8943 21.0455 87.6897 20.5909L89.4965 19.4659C89.6329 19.7045 89.809 19.9773 90.0249 20.2841C90.2409 20.5966 90.5676 20.8665 91.0051 21.0937C91.4482 21.3267 92.0704 21.4432 92.8715 21.4432C93.9227 21.4432 94.8431 21.1875 95.6329 20.6761C96.4227 20.1648 96.9113 19.3636 97.0988 18.2727L97.5079 15.6136H97.3374C97.1556 15.8523 96.9028 16.1477 96.5789 16.5C96.2551 16.8466 95.8204 17.1562 95.2749 17.429C94.7295 17.696 94.0306 17.8295 93.1784 17.8295C92.1159 17.8295 91.2068 17.5795 90.4511 17.0795C89.6954 16.5795 89.1528 15.8523 88.8232 14.8977C88.4994 13.9432 88.4511 12.7841 88.6784 11.4205C88.8999 10.0795 89.3261 8.91193 89.9568 7.91761C90.5931 6.91761 91.3772 6.14488 92.309 5.59943C93.2409 5.04829 94.2579 4.77272 95.3602 4.77272C96.2124 4.77272 96.8659 4.91477 97.3204 5.19886C97.7806 5.47727 98.1159 5.79545 98.3261 6.15341C98.5363 6.50568 98.6954 6.79545 98.8034 7.02272H99.0079L99.3488 4.94318H101.292L99.0761 18.4091C98.8886 19.5341 98.4823 20.4489 97.8573 21.1534C97.2323 21.8636 96.4653 22.3835 95.5562 22.7131C94.6471 23.0483 93.6727 23.2159 92.6329 23.2159ZM93.6897 16.0227C94.4909 16.0227 95.2039 15.8381 95.8289 15.4687C96.4596 15.0994 96.9823 14.5682 97.3971 13.875C97.8119 13.1818 98.0988 12.3523 98.2579 11.3864C98.417 10.4432 98.4056 9.61079 98.2238 8.8892C98.042 8.16761 97.6982 7.60227 97.1926 7.19318C96.6926 6.78409 96.0363 6.57954 95.2238 6.57954C94.3659 6.57954 93.6244 6.79545 92.9994 7.22727C92.3801 7.65909 91.8772 8.23863 91.4909 8.96591C91.1045 9.69318 90.8374 10.5 90.6897 11.3864C90.542 12.2955 90.5477 13.0994 90.7068 13.7983C90.8659 14.4915 91.1897 15.0369 91.6784 15.4347C92.1727 15.8267 92.8431 16.0227 93.6897 16.0227ZM128.519 7.875L126.61 8.38636C126.542 8.07954 126.423 7.78409 126.252 7.5C126.087 7.21022 125.832 6.97443 125.485 6.79261C125.144 6.60511 124.678 6.51136 124.087 6.51136C123.286 6.51136 122.59 6.69602 121.999 7.06534C121.408 7.42897 121.07 7.89204 120.985 8.45454C120.9 8.94886 121.014 9.34375 121.326 9.6392C121.639 9.93466 122.161 10.1761 122.894 10.3636L124.769 10.8409C125.894 11.1307 126.695 11.5653 127.173 12.1449C127.656 12.7187 127.82 13.4659 127.667 14.3864C127.542 15.1364 127.215 15.8068 126.687 16.3977C126.158 16.9886 125.482 17.4545 124.658 17.7955C123.835 18.1364 122.917 18.3068 121.906 18.3068C120.559 18.3068 119.497 18.017 118.718 17.4375C117.94 16.8523 117.525 16.0057 117.474 14.8977L119.485 14.4205C119.536 15.1193 119.786 15.6477 120.235 16.0057C120.69 16.358 121.326 16.5341 122.144 16.5341C123.082 16.5341 123.863 16.3352 124.488 15.9375C125.113 15.5341 125.468 15.0511 125.553 14.4886C125.639 14.0284 125.548 13.6449 125.281 13.3381C125.019 13.0312 124.565 12.8011 123.917 12.6477L121.837 12.1364C120.678 11.8466 119.866 11.4034 119.4 10.8068C118.94 10.2102 118.786 9.46022 118.94 8.55682C119.065 7.81818 119.383 7.16477 119.894 6.59659C120.411 6.02841 121.059 5.58238 121.837 5.25852C122.622 4.93466 123.474 4.77272 124.394 4.77272C125.69 4.77272 126.658 5.05682 127.301 5.625C127.943 6.1875 128.349 6.9375 128.519 7.875ZM139.484 18.3068C138.28 18.3068 137.271 18.0199 136.459 17.446C135.646 16.8722 135.073 16.0682 134.737 15.0341C134.408 14 134.354 12.7955 134.575 11.4205C134.791 10.0795 135.22 8.91193 135.862 7.91761C136.51 6.91761 137.314 6.14488 138.274 5.59943C139.24 5.04829 140.303 4.77272 141.462 4.77272C142.666 4.77272 143.672 5.0625 144.479 5.64204C145.291 6.21591 145.865 7.02272 146.2 8.0625C146.536 9.09659 146.592 10.3068 146.371 11.6932C146.155 13.0227 145.72 14.1847 145.067 15.179C144.419 16.1676 143.615 16.9375 142.655 17.4886C141.7 18.0341 140.644 18.3068 139.484 18.3068ZM139.519 16.5C140.439 16.5 141.237 16.2642 141.913 15.7926C142.595 15.321 143.146 14.6989 143.567 13.9261C143.993 13.1534 144.28 12.3182 144.428 11.4205C144.564 10.5682 144.558 9.77556 144.411 9.04261C144.263 8.30397 143.948 7.71022 143.465 7.26136C142.982 6.80681 142.303 6.57954 141.428 6.57954C140.507 6.57954 139.703 6.81818 139.016 7.29545C138.334 7.77272 137.783 8.40056 137.362 9.17897C136.942 9.95738 136.661 10.7955 136.519 11.6932C136.382 12.5455 136.385 13.3381 136.527 14.071C136.675 14.7983 136.99 15.3864 137.473 15.8352C137.962 16.2784 138.644 16.5 139.519 16.5ZM157.805 18.3068C156.6 18.3068 155.592 18.0199 154.779 17.446C153.967 16.8722 153.393 16.0682 153.058 15.0341C152.728 14 152.674 12.7955 152.896 11.4205C153.112 10.0795 153.541 8.91193 154.183 7.91761C154.83 6.91761 155.634 6.14488 156.595 5.59943C157.56 5.04829 158.623 4.77272 159.782 4.77272C160.987 4.77272 161.992 5.0625 162.799 5.64204C163.612 6.21591 164.185 7.02272 164.521 8.0625C164.856 9.09659 164.913 10.3068 164.691 11.6932C164.475 13.0227 164.041 14.1847 163.387 15.179C162.739 16.1676 161.935 16.9375 160.975 17.4886C160.021 18.0341 158.964 18.3068 157.805 18.3068ZM157.839 16.5C158.759 16.5 159.558 16.2642 160.234 15.7926C160.916 15.321 161.467 14.6989 161.887 13.9261C162.313 13.1534 162.6 12.3182 162.748 11.4205C162.884 10.5682 162.879 9.77556 162.731 9.04261C162.583 8.30397 162.268 7.71022 161.785 7.26136C161.302 6.80681 160.623 6.57954 159.748 6.57954C158.828 6.57954 158.024 6.81818 157.336 7.29545C156.654 7.77272 156.103 8.40056 155.683 9.17897C155.262 9.95738 154.981 10.7955 154.839 11.6932C154.703 12.5455 154.705 13.3381 154.847 14.071C154.995 14.7983 155.31 15.3864 155.793 15.8352C156.282 16.2784 156.964 16.5 157.839 16.5ZM174.028 10.1591L172.733 18.0341H170.722L172.903 4.94318H174.847L174.506 6.98863H174.676C175.085 6.32386 175.639 5.78977 176.338 5.38636C177.037 4.97727 177.881 4.77272 178.869 4.77272C179.744 4.77272 180.483 4.95454 181.085 5.31818C181.693 5.67613 182.122 6.22159 182.372 6.95454C182.628 7.68182 182.665 8.60227 182.483 9.71591L181.085 18.0341H179.074L180.438 9.85227C180.608 8.82954 180.475 8.02841 180.037 7.44886C179.605 6.86931 178.921 6.57954 177.983 6.57954C177.335 6.57954 176.736 6.71875 176.185 6.99716C175.639 7.27557 175.176 7.68182 174.796 8.21591C174.421 8.75 174.165 9.39772 174.028 10.1591ZM190.465 18.1705C190.033 18.1705 189.673 18.0227 189.383 17.7273C189.093 17.4261 188.943 17.0625 188.931 16.6364C188.926 16.2102 189.076 15.8551 189.383 15.571C189.69 15.2812 190.051 15.1364 190.465 15.1364C190.886 15.1364 191.249 15.2841 191.556 15.5795C191.863 15.875 192.011 16.2273 191.999 16.6364C191.994 16.9205 191.92 17.179 191.778 17.4119C191.641 17.6449 191.457 17.8295 191.224 17.9659C190.997 18.1023 190.744 18.1705 190.465 18.1705ZM201.075 18.1705C200.643 18.1705 200.282 18.0227 199.992 17.7273C199.703 17.4261 199.552 17.0625 199.541 16.6364C199.535 16.2102 199.685 15.8551 199.992 15.571C200.299 15.2812 200.66 15.1364 201.075 15.1364C201.495 15.1364 201.859 15.2841 202.166 15.5795C202.472 15.875 202.62 16.2273 202.609 16.6364C202.603 16.9205 202.529 17.179 202.387 17.4119C202.251 17.6449 202.066 17.8295 201.833 17.9659C201.606 18.1023 201.353 18.1705 201.075 18.1705ZM211.684 18.1705C211.252 18.1705 210.891 18.0227 210.602 17.7273C210.312 17.4261 210.161 17.0625 210.15 16.6364C210.144 16.2102 210.295 15.8551 210.602 15.571C210.908 15.2812 211.269 15.1364 211.684 15.1364C212.104 15.1364 212.468 15.2841 212.775 15.5795C213.082 15.875 213.229 16.2273 213.218 16.6364C213.212 16.9205 213.139 17.179 212.997 17.4119C212.86 17.6449 212.676 17.8295 212.443 17.9659C212.215 18.1023 211.962 18.1705 211.684 18.1705Z" fill="#727272"/>
</svg>
