<svg width="299" height="54" viewBox="0 0 299 54" fill="none" xmlns="http://www.w3.org/2000/svg">
<g filter="url(#filter0_d_281_72)">
<path d="M5.00027 45.2159C4.38254 45.2159 3.91256 44.6613 4.01379 44.052L11.0919 1.44598C11.1721 0.963554 11.5894 0.609863 12.0784 0.609863H19.4887C20.1063 0.609863 20.5763 1.16414 20.4753 1.77342L17.8098 17.8507C17.7088 18.46 18.1787 19.0143 18.7963 19.0143H35.9271C36.4163 19.0143 36.8337 18.6604 36.9137 18.1778L39.6876 1.4463C39.7676 0.963729 40.185 0.609863 40.6741 0.609863H48.0621C48.6798 0.609863 49.1498 1.16437 49.0486 1.77375L41.9703 44.3797C41.8902 44.8622 41.4729 45.2159 40.9838 45.2159H33.5951C32.9776 45.2159 32.5077 44.6617 32.6086 44.0525L35.2746 27.9532C35.3755 27.3439 34.9055 26.7898 34.288 26.7898H17.1572C16.668 26.7898 16.2506 27.1438 16.1706 27.6264L13.3964 44.3792C13.3164 44.8619 12.899 45.2159 12.4098 45.2159H5.00027Z" fill="url(#paint0_linear_281_72)"/>
</g>
<g filter="url(#filter1_d_281_72)">
<path d="M78.5571 1.44566C78.6373 0.963354 79.0546 0.609802 79.5435 0.609802H86.9545C87.5719 0.609802 88.0419 1.16391 87.941 1.77311L83.3386 29.5776C82.801 32.8301 81.5586 35.6762 79.6116 38.1155C77.6646 40.5549 75.1872 42.457 72.1795 43.822C69.1716 45.1722 65.8151 45.8475 62.11 45.8475C58.4048 45.8475 55.2807 45.1722 52.7379 43.822C50.1951 42.457 48.3571 40.5549 47.2238 38.1155C46.0903 35.6762 45.7925 32.8301 46.3302 29.5776L50.9866 1.4465C51.0665 0.963806 51.484 0.609802 51.9732 0.609802H59.3823C60.0001 0.609802 60.4701 1.16448 60.3687 1.77394L55.8765 28.7717C55.6149 30.4706 55.7457 31.9807 56.2687 33.3021C56.8064 34.6234 57.6928 35.6616 58.9278 36.4166C60.1629 37.1716 61.6885 37.5491 63.5048 37.5491C65.3356 37.5491 66.9921 37.1716 68.4742 36.4166C69.9708 35.6616 71.1987 34.6234 72.1577 33.3021C73.1311 31.9807 73.7487 30.4706 74.0101 28.7717L78.5571 1.44566Z" fill="url(#paint1_linear_281_72)"/>
</g>
<g filter="url(#filter2_d_281_72)">
<path d="M84.0215 45.2158C83.4038 45.2158 82.9338 44.6613 83.035 44.0519L90.1133 1.44592C90.1934 0.963491 90.6107 0.609802 91.0997 0.609802H108.124C111.408 0.609802 114.067 1.09623 116.101 2.06908C118.15 3.04193 119.581 4.39231 120.395 6.12022C121.209 7.8336 121.427 9.80835 121.049 12.0445C120.744 13.7869 120.126 15.3115 119.196 16.6184C118.281 17.9252 117.148 18.9996 115.796 19.8419C114.489 20.6564 113.074 21.2401 111.549 21.5927C111.455 21.6145 111.381 21.6891 111.362 21.784C111.333 21.9308 111.442 22.069 111.591 22.0796C113.163 22.1916 114.587 22.6653 115.862 23.5009C117.213 24.3721 118.223 25.6063 118.891 27.2036C119.56 28.8008 119.712 30.6956 119.349 32.8883C118.957 35.255 118.019 37.3677 116.537 39.2263C115.055 41.0703 113.079 42.5297 110.609 43.6041C108.153 44.6787 105.255 45.2158 101.913 45.2158H84.0215ZM93.777 36.344C93.6774 36.9527 94.1471 37.5056 94.7639 37.5056H101.281C103.896 37.5056 105.894 36.9974 107.274 35.981C108.655 34.9645 109.483 33.6215 109.759 31.9517C109.948 30.7175 109.824 29.6284 109.388 28.6846C108.967 27.7409 108.248 27.0002 107.231 26.463C106.228 25.9258 104.957 25.6572 103.416 25.6572H96.3762C95.8863 25.6572 95.4685 26.0121 95.3894 26.4956L93.777 36.344ZM96.8093 18.1119C96.7083 18.7212 97.1782 19.2755 97.7958 19.2755H103.613C104.891 19.2755 106.076 19.0505 107.165 18.6003C108.27 18.1357 109.178 17.4822 109.89 16.6401C110.616 15.7835 111.074 14.7743 111.263 13.6126C111.524 11.9864 111.161 10.6868 110.173 9.71397C109.2 8.7266 107.674 8.23291 105.596 8.23291H99.2951C98.8059 8.23291 98.3885 8.58677 98.3085 9.06934L96.8093 18.1119Z" fill="url(#paint2_linear_281_72)"/>
</g>
<g filter="url(#filter3_d_281_72)">
<path d="M120.08 45.2158C119.462 45.2158 118.992 44.6613 119.093 44.0519L126.171 1.44592C126.252 0.963491 126.669 0.609802 127.158 0.609802H143.921C147.292 0.609802 150.067 1.20513 152.247 2.39579C154.441 3.58645 155.981 5.27805 156.867 7.4706C157.768 9.64862 157.979 12.2187 157.499 15.1808C157.005 18.143 155.937 20.684 154.295 22.804C152.668 24.9238 150.547 26.5574 147.931 27.7045C145.33 28.837 142.315 29.4033 138.886 29.4033H128.282C127.662 29.4033 127.191 28.8445 127.297 28.2333L128.259 22.6538C128.342 22.1742 128.758 21.8239 129.245 21.8239H138.646C140.448 21.8239 141.988 21.577 143.267 21.0833C144.546 20.5895 145.556 19.8491 146.296 18.8616C147.052 17.8743 147.546 16.6473 147.779 15.1808C148.026 13.6852 147.938 12.4365 147.517 11.4346C147.096 10.4182 146.333 9.64862 145.229 9.12589C144.124 8.58866 142.671 8.32003 140.87 8.32003H135.352C134.863 8.32003 134.446 8.67318 134.366 9.15515L128.477 44.3807C128.396 44.8626 127.979 45.2158 127.491 45.2158H120.08ZM145.673 24.9166C146.088 24.9166 146.459 25.1728 146.607 25.5604L153.582 43.8596C153.832 44.5142 153.348 45.2158 152.648 45.2158H144.378C143.959 45.2158 143.585 44.955 143.44 44.5623L136.681 26.2631C136.44 25.6101 136.923 24.9166 137.619 24.9166H145.673Z" fill="url(#paint3_linear_281_72)"/>
</g>
<g filter="url(#filter4_d_281_72)">
<path d="M197.787 13.5691C197.219 13.5691 196.775 13.094 196.717 12.5287C196.583 11.2096 196.061 10.1552 195.154 9.36552C194.036 8.37816 192.343 7.88448 190.077 7.88448C188.537 7.88448 187.2 8.10227 186.066 8.53788C184.932 8.95896 184.026 9.54704 183.343 10.3021C182.674 11.0426 182.259 11.8993 182.1 12.8722C181.94 13.6708 181.991 14.3677 182.252 14.9631C182.528 15.5584 182.958 16.0739 183.538 16.5095C184.134 16.9306 184.839 17.3009 185.652 17.6203C186.467 17.9253 187.331 18.1865 188.247 18.4044L192.083 19.3628C193.956 19.7982 195.642 20.3791 197.138 21.1051C198.65 21.8311 199.914 22.7241 200.931 23.7841C201.963 24.8441 202.688 26.0929 203.11 27.5304C203.532 28.9679 203.591 30.6159 203.285 32.4745C202.82 35.2042 201.737 37.5711 200.037 39.5749C198.337 41.5641 196.107 43.1104 193.345 44.214C190.585 45.3031 187.389 45.8476 183.755 45.8476C180.153 45.8476 177.109 45.2957 174.624 44.1922C172.139 43.0886 170.33 41.4552 169.197 39.2917C168.18 37.312 167.812 34.9063 168.09 32.0747C168.139 31.5785 168.565 31.2111 169.063 31.2111H176.214C176.808 31.2111 177.263 31.7277 177.278 32.3218C177.305 33.336 177.539 34.2146 177.98 34.9574C178.591 35.9447 179.499 36.6925 180.705 37.2008C181.911 37.6944 183.327 37.9412 184.955 37.9412C186.568 37.9412 188 37.7089 189.249 37.2443C190.513 36.7797 191.536 36.1336 192.322 35.3059C193.106 34.4782 193.586 33.5271 193.76 32.4527C193.935 31.4508 193.783 30.6085 193.302 29.9262C192.824 29.2437 192.053 28.6629 190.992 28.1837C189.947 27.69 188.646 27.2544 187.091 26.8769L182.427 25.6573C178.822 24.7425 176.099 23.3122 174.253 21.3665C172.409 19.4207 171.747 16.7998 172.271 13.5038C172.735 10.803 173.862 8.4435 175.648 6.42519C177.451 4.39236 179.717 2.81692 182.448 1.69886C185.195 0.566288 188.194 0 191.45 0C194.763 0 197.56 0.573548 199.841 1.72065C202.122 2.85323 203.785 4.43592 204.832 6.46875C205.767 8.28434 206.121 10.3663 205.896 12.7147C205.849 13.2073 205.425 13.5691 204.93 13.5691H197.787Z" fill="url(#paint4_linear_281_72)"/>
</g>
<g filter="url(#filter5_d_281_72)">
<path d="M244.003 15.0284C243.493 15.0284 243.071 14.6432 242.974 14.1426C242.837 13.4388 242.635 12.7975 242.366 12.2188C242.002 11.3911 241.501 10.6941 240.862 10.1278C240.223 9.54704 239.445 9.10417 238.53 8.79925C237.614 8.49431 236.554 8.34185 235.348 8.34185C233.066 8.34185 230.93 8.90814 228.94 10.0407C226.964 11.1733 225.279 12.8213 223.883 14.9849C222.488 17.1339 221.537 19.762 221.029 22.8693C220.506 25.9766 220.506 28.6193 221.029 30.7973C221.566 32.9754 222.576 34.638 224.058 35.7851C225.554 36.9176 227.479 37.4838 229.833 37.4838C231.969 37.4838 233.887 37.1063 235.587 36.3513C237.287 35.5817 238.676 34.5 239.75 33.106C240.816 31.7438 241.506 30.139 241.821 28.2915C241.834 28.2199 241.901 28.1707 241.973 28.1815C242.135 28.206 242.117 28.445 241.953 28.445H233.166C232.676 28.445 232.304 28.006 232.384 27.5235L233.27 22.1812C233.35 21.6986 233.767 21.3447 234.256 21.3447H250.901C251.521 21.3447 251.991 21.9023 251.887 22.513L251.127 26.964C250.503 30.8845 249.13 34.2531 247.008 37.07C244.887 39.887 242.242 42.0506 239.075 43.5606C235.922 45.0708 232.463 45.8258 228.701 45.8258C224.515 45.8258 220.992 44.9036 218.129 43.0597C215.281 41.2011 213.254 38.5656 212.048 35.1533C210.857 31.7266 210.647 27.661 211.416 22.9564C212.013 19.3408 213.073 16.1175 214.598 13.286C216.139 10.44 218.02 8.02967 220.243 6.05492C222.467 4.08018 224.929 2.57733 227.633 1.5464C230.349 0.515467 233.175 0 236.11 0C238.639 0 240.927 0.370266 242.977 1.1108C245.039 1.83681 246.805 2.86775 248.272 4.2036C249.754 5.53946 250.873 7.12942 251.629 8.97348C252.285 10.5304 252.64 12.2241 252.696 14.0545C252.712 14.5963 252.265 15.0284 251.723 15.0284H244.003Z" fill="url(#paint5_linear_281_72)"/>
</g>
<g filter="url(#filter6_d_281_72)">
<path d="M206.65 45.6341C205.183 45.6341 203.977 45.1258 203.032 44.1094C202.102 43.0931 201.682 41.8588 201.768 40.4069C201.871 38.9694 202.474 37.757 203.577 36.7695C204.697 35.7676 205.983 35.2667 207.436 35.2667C208.831 35.2667 210.008 35.7676 210.967 36.7695C211.926 37.7714 212.346 38.9838 212.231 40.4069C212.157 41.3652 211.846 42.2436 211.293 43.0422C210.755 43.8263 210.072 44.4579 209.245 44.9371C208.416 45.4018 207.551 45.6341 206.65 45.6341Z" fill="url(#paint6_linear_281_72)"/>
</g>
<g filter="url(#filter7_d_281_72)">
<path d="M285.432 15.0284C284.922 15.0284 284.5 14.6432 284.403 14.1426C284.266 13.4388 284.063 12.7975 283.795 12.2188C283.431 11.3911 282.929 10.6941 282.291 10.1278C281.651 9.54704 280.873 9.10417 279.959 8.79925C279.043 8.49431 277.983 8.34185 276.777 8.34185C274.495 8.34185 272.359 8.90814 270.369 10.0407C268.393 11.1733 266.708 12.8213 265.312 14.9849C263.917 17.1339 262.965 19.762 262.458 22.8693C261.934 25.9766 261.934 28.6193 262.458 30.7973C262.995 32.9754 264.004 34.638 265.486 35.7851C266.983 36.9176 268.908 37.4838 271.262 37.4838C273.398 37.4838 275.316 37.1063 277.016 36.3513C278.716 35.5817 280.105 34.5 281.179 33.106C282.245 31.7438 282.934 30.139 283.25 28.2915C283.262 28.2199 283.33 28.1707 283.401 28.1815C283.563 28.206 283.545 28.445 283.382 28.445H274.594C274.105 28.445 273.733 28.006 273.813 27.5235L274.698 22.1812C274.778 21.6986 275.196 21.3447 275.685 21.3447H292.33C292.95 21.3447 293.42 21.9023 293.316 22.513L292.556 26.964C291.932 30.8845 290.558 34.2531 288.436 37.07C286.316 39.887 283.671 42.0506 280.504 43.5606C277.35 45.0708 273.892 45.8258 270.13 45.8258C265.944 45.8258 262.421 44.9036 259.558 43.0597C256.71 41.2011 254.683 38.5656 253.477 35.1533C252.286 31.7266 252.076 27.661 252.845 22.9564C253.441 19.3408 254.502 16.1175 256.027 13.286C257.567 10.44 259.449 8.02967 261.672 6.05492C263.895 4.08018 266.358 2.57733 269.062 1.5464C271.777 0.515467 274.604 0 277.539 0C280.068 0 282.356 0.370266 284.406 1.1108C286.468 1.83681 288.234 2.86775 289.701 4.2036C291.183 5.53946 292.301 7.12942 293.058 8.97348C293.713 10.5304 294.069 12.2241 294.124 14.0545C294.141 14.5963 293.694 15.0284 293.152 15.0284H285.432Z" fill="url(#paint7_linear_281_72)"/>
</g>
<g filter="url(#filter8_d_281_72)">
<path d="M170.626 0.609802C171.244 0.609802 171.714 1.1643 171.612 1.77367L164.535 44.3797C164.455 44.8621 164.038 45.2158 163.549 45.2158H156.138C155.52 45.2158 155.05 44.6613 155.152 44.0519L162.23 1.4459C162.31 0.963484 162.728 0.609802 163.217 0.609802H170.626Z" fill="url(#paint8_linear_281_72)"/>
</g>
<defs>
<filter id="filter0_d_281_72" x="0" y="0.609863" width="53.0624" height="52.606" filterUnits="userSpaceOnUse" color-interpolation-filters="sRGB">
<feFlood flood-opacity="0" result="BackgroundImageFix"/>
<feColorMatrix in="SourceAlpha" type="matrix" values="0 0 0 0 0 0 0 0 0 0 0 0 0 0 0 0 0 0 127 0" result="hardAlpha"/>
<feOffset dy="4"/>
<feGaussianBlur stdDeviation="2"/>
<feComposite in2="hardAlpha" operator="out"/>
<feColorMatrix type="matrix" values="0 0 0 0 0 0 0 0 0 0 0 0 0 0 0 0 0 0 0.25 0"/>
<feBlend mode="normal" in2="BackgroundImageFix" result="effect1_dropShadow_281_72"/>
<feBlend mode="normal" in="SourceGraphic" in2="effect1_dropShadow_281_72" result="shape"/>
</filter>
<filter id="filter1_d_281_72" x="42.0707" y="0.609802" width="49.884" height="53.2377" filterUnits="userSpaceOnUse" color-interpolation-filters="sRGB">
<feFlood flood-opacity="0" result="BackgroundImageFix"/>
<feColorMatrix in="SourceAlpha" type="matrix" values="0 0 0 0 0 0 0 0 0 0 0 0 0 0 0 0 0 0 127 0" result="hardAlpha"/>
<feOffset dy="4"/>
<feGaussianBlur stdDeviation="2"/>
<feComposite in2="hardAlpha" operator="out"/>
<feColorMatrix type="matrix" values="0 0 0 0 0 0 0 0 0 0 0 0 0 0 0 0 0 0 0.25 0"/>
<feBlend mode="normal" in2="BackgroundImageFix" result="effect1_dropShadow_281_72"/>
<feBlend mode="normal" in="SourceGraphic" in2="effect1_dropShadow_281_72" result="shape"/>
</filter>
<filter id="filter2_d_281_72" x="79.0214" y="0.609802" width="46.2073" height="52.606" filterUnits="userSpaceOnUse" color-interpolation-filters="sRGB">
<feFlood flood-opacity="0" result="BackgroundImageFix"/>
<feColorMatrix in="SourceAlpha" type="matrix" values="0 0 0 0 0 0 0 0 0 0 0 0 0 0 0 0 0 0 127 0" result="hardAlpha"/>
<feOffset dy="4"/>
<feGaussianBlur stdDeviation="2"/>
<feComposite in2="hardAlpha" operator="out"/>
<feColorMatrix type="matrix" values="0 0 0 0 0 0 0 0 0 0 0 0 0 0 0 0 0 0 0.25 0"/>
<feBlend mode="normal" in2="BackgroundImageFix" result="effect1_dropShadow_281_72"/>
<feBlend mode="normal" in="SourceGraphic" in2="effect1_dropShadow_281_72" result="shape"/>
</filter>
<filter id="filter3_d_281_72" x="115.079" y="0.609802" width="46.6697" height="52.606" filterUnits="userSpaceOnUse" color-interpolation-filters="sRGB">
<feFlood flood-opacity="0" result="BackgroundImageFix"/>
<feColorMatrix in="SourceAlpha" type="matrix" values="0 0 0 0 0 0 0 0 0 0 0 0 0 0 0 0 0 0 127 0" result="hardAlpha"/>
<feOffset dy="4"/>
<feGaussianBlur stdDeviation="2"/>
<feComposite in2="hardAlpha" operator="out"/>
<feColorMatrix type="matrix" values="0 0 0 0 0 0 0 0 0 0 0 0 0 0 0 0 0 0 0.25 0"/>
<feBlend mode="normal" in2="BackgroundImageFix" result="effect1_dropShadow_281_72"/>
<feBlend mode="normal" in="SourceGraphic" in2="effect1_dropShadow_281_72" result="shape"/>
</filter>
<filter id="filter4_d_281_72" x="164" y="0" width="45.9614" height="53.8476" filterUnits="userSpaceOnUse" color-interpolation-filters="sRGB">
<feFlood flood-opacity="0" result="BackgroundImageFix"/>
<feColorMatrix in="SourceAlpha" type="matrix" values="0 0 0 0 0 0 0 0 0 0 0 0 0 0 0 0 0 0 127 0" result="hardAlpha"/>
<feOffset dy="4"/>
<feGaussianBlur stdDeviation="2"/>
<feComposite in2="hardAlpha" operator="out"/>
<feColorMatrix type="matrix" values="0 0 0 0 0 0 0 0 0 0 0 0 0 0 0 0 0 0 0.25 0"/>
<feBlend mode="normal" in2="BackgroundImageFix" result="effect1_dropShadow_281_72"/>
<feBlend mode="normal" in="SourceGraphic" in2="effect1_dropShadow_281_72" result="shape"/>
</filter>
<filter id="filter5_d_281_72" x="206.963" y="0" width="49.7329" height="53.8258" filterUnits="userSpaceOnUse" color-interpolation-filters="sRGB">
<feFlood flood-opacity="0" result="BackgroundImageFix"/>
<feColorMatrix in="SourceAlpha" type="matrix" values="0 0 0 0 0 0 0 0 0 0 0 0 0 0 0 0 0 0 127 0" result="hardAlpha"/>
<feOffset dy="4"/>
<feGaussianBlur stdDeviation="2"/>
<feComposite in2="hardAlpha" operator="out"/>
<feColorMatrix type="matrix" values="0 0 0 0 0 0 0 0 0 0 0 0 0 0 0 0 0 0 0.25 0"/>
<feBlend mode="normal" in2="BackgroundImageFix" result="effect1_dropShadow_281_72"/>
<feBlend mode="normal" in="SourceGraphic" in2="effect1_dropShadow_281_72" result="shape"/>
</filter>
<filter id="filter6_d_281_72" x="197.757" y="35.2667" width="18.4924" height="18.3675" filterUnits="userSpaceOnUse" color-interpolation-filters="sRGB">
<feFlood flood-opacity="0" result="BackgroundImageFix"/>
<feColorMatrix in="SourceAlpha" type="matrix" values="0 0 0 0 0 0 0 0 0 0 0 0 0 0 0 0 0 0 127 0" result="hardAlpha"/>
<feOffset dy="4"/>
<feGaussianBlur stdDeviation="2"/>
<feComposite in2="hardAlpha" operator="out"/>
<feColorMatrix type="matrix" values="0 0 0 0 0 0 0 0 0 0 0 0 0 0 0 0 0 0 0.25 0"/>
<feBlend mode="normal" in2="BackgroundImageFix" result="effect1_dropShadow_281_72"/>
<feBlend mode="normal" in="SourceGraphic" in2="effect1_dropShadow_281_72" result="shape"/>
</filter>
<filter id="filter7_d_281_72" x="248.392" y="0" width="49.7329" height="53.8258" filterUnits="userSpaceOnUse" color-interpolation-filters="sRGB">
<feFlood flood-opacity="0" result="BackgroundImageFix"/>
<feColorMatrix in="SourceAlpha" type="matrix" values="0 0 0 0 0 0 0 0 0 0 0 0 0 0 0 0 0 0 127 0" result="hardAlpha"/>
<feOffset dy="4"/>
<feGaussianBlur stdDeviation="2"/>
<feComposite in2="hardAlpha" operator="out"/>
<feColorMatrix type="matrix" values="0 0 0 0 0 0 0 0 0 0 0 0 0 0 0 0 0 0 0.25 0"/>
<feBlend mode="normal" in2="BackgroundImageFix" result="effect1_dropShadow_281_72"/>
<feBlend mode="normal" in="SourceGraphic" in2="effect1_dropShadow_281_72" result="shape"/>
</filter>
<filter id="filter8_d_281_72" x="151.138" y="0.609802" width="24.4883" height="52.606" filterUnits="userSpaceOnUse" color-interpolation-filters="sRGB">
<feFlood flood-opacity="0" result="BackgroundImageFix"/>
<feColorMatrix in="SourceAlpha" type="matrix" values="0 0 0 0 0 0 0 0 0 0 0 0 0 0 0 0 0 0 127 0" result="hardAlpha"/>
<feOffset dy="4"/>
<feGaussianBlur stdDeviation="2"/>
<feComposite in2="hardAlpha" operator="out"/>
<feColorMatrix type="matrix" values="0 0 0 0 0 0 0 0 0 0 0 0 0 0 0 0 0 0 0.25 0"/>
<feBlend mode="normal" in2="BackgroundImageFix" result="effect1_dropShadow_281_72"/>
<feBlend mode="normal" in="SourceGraphic" in2="effect1_dropShadow_281_72" result="shape"/>
</filter>
<linearGradient id="paint0_linear_281_72" x1="26.5312" y1="0.609863" x2="26.5312" y2="45.2159" gradientUnits="userSpaceOnUse">
<stop stop-color="#F4E733"/>
<stop offset="0.0001" stop-color="#F6E935"/>
<stop offset="1" stop-color="#232323"/>
</linearGradient>
<linearGradient id="paint1_linear_281_72" x1="67.1021" y1="0.609802" x2="67.1021" y2="45.8475" gradientUnits="userSpaceOnUse">
<stop stop-color="#F4E733"/>
<stop offset="0.0001" stop-color="#F6E935"/>
<stop offset="1" stop-color="#232323"/>
</linearGradient>
<linearGradient id="paint2_linear_281_72" x1="102.035" y1="0.609802" x2="102.035" y2="45.2158" gradientUnits="userSpaceOnUse">
<stop stop-color="#F4E733"/>
<stop offset="0.0001" stop-color="#F6E935"/>
<stop offset="1" stop-color="#232323"/>
</linearGradient>
<linearGradient id="paint3_linear_281_72" x1="138.325" y1="0.609802" x2="138.325" y2="45.2158" gradientUnits="userSpaceOnUse">
<stop stop-color="#F4E733"/>
<stop offset="0.0001" stop-color="#F6E935"/>
<stop offset="1" stop-color="#232323"/>
</linearGradient>
<linearGradient id="paint4_linear_281_72" x1="186.981" y1="0" x2="186.981" y2="45.8476" gradientUnits="userSpaceOnUse">
<stop stop-color="#F4E733"/>
<stop offset="0.0001" stop-color="#F6E935"/>
<stop offset="1" stop-color="#232323"/>
</linearGradient>
<linearGradient id="paint5_linear_281_72" x1="231.833" y1="0" x2="231.833" y2="45.8258" gradientUnits="userSpaceOnUse">
<stop stop-color="#F4E733"/>
<stop offset="0.0001" stop-color="#F6E935"/>
<stop offset="1" stop-color="#232323"/>
</linearGradient>
<linearGradient id="paint6_linear_281_72" x1="207.003" y1="35.2667" x2="207.003" y2="45.6341" gradientUnits="userSpaceOnUse">
<stop stop-color="#F4E733"/>
<stop offset="0.0001" stop-color="#706B29"/>
<stop offset="1" stop-color="#232323"/>
</linearGradient>
<linearGradient id="paint7_linear_281_72" x1="273.262" y1="0" x2="273.262" y2="45.8258" gradientUnits="userSpaceOnUse">
<stop stop-color="#F4E733"/>
<stop offset="0.0001" stop-color="#F6E935"/>
<stop offset="1" stop-color="#232323"/>
</linearGradient>
<linearGradient id="paint8_linear_281_72" x1="163.382" y1="0.609802" x2="163.382" y2="45.2158" gradientUnits="userSpaceOnUse">
<stop stop-color="#F4E733"/>
<stop offset="0.0001" stop-color="#F6E935"/>
<stop offset="1" stop-color="#232323"/>
</linearGradient>
</defs>
</svg>
